Genre:Drama | Family 
Language:English
IMDb:http://www.imdb.com/title/tt0981042/
Source:DVDR-TDP

Format : MPEG-4
Format profile : Base Media
Codec ID : isom
File size : 937 MiB
Duration : 1h 44mn
Overall bit rate : 1 254 Kbps
Movie name : Like.Dandelion.Dust.2009.DvDRip.x264.Feel-Free

Video
Format settings, CABAC : Yes
Format settings, ReFrames : 4 frames
Codec ID : avc1
Codec ID/Info : Advanced Video Coding
Duration : 1h 44mn
Bit rate mode : Variable
Bit rate : 896 Kbps
Width : 720 pixels
Height : 304 pixels
Display aspect ratio : 2.35:1
Frame rate mode : Constant
Frame rate : 23.976 fps
Color space : YUV
Chroma subsampling : 4:2:0
Bit depth : 8 bits
Scan type : Progressive
Bits/(Pixel*Frame) : 0.171
Stream size : 660 MiB (70%)
Writing library : x264

Audio
ID : 2
Format : AAC
Format/Info : Advanced Audio Codec
Format version : Version 4
Format profile : LC
Codec ID : 40
Duration : 1h 44mn
Bit rate mode : Variable
Bit rate : 365 Kbps
Channel(s) : 6 channels
Channel positions : Front: L C R, Side: L R, LFE
Sampling rate : 48.0 KHz
Stream size : 272 MiB (29%)


Plot:
A compelling drama that explores the different meanings of being a parent through the gritty, realistic lives of the struggling








================================== 
http://thepiratebay.org/user/hiest
==================================








Screen Shots:
 
http://rapidhdd.com/images/814544vlcsnap-00001.png
 
http://www.rapidhdd.com/images/739554vlcsnap-00002.png
 
http://www.rapidhdd.com/images/749703vlcsnap-00003.png
 
http://www.rapidhdd.com/images/327472vlcsnap-00005.png
 
http://www.rapidhdd.com/images/154638vlcsnap-00004.png